<?xml version="1.0" standalone="no"?>
<!DOCTYPE svg PUBLIC "-//W3C//DTD SVG 20010904//EN"
 "http://www.w3.org/TR/2001/REC-SVG-20010904/DTD/svg10.dtd">
<svg version="1.0" xmlns="http://www.w3.org/2000/svg"
 width="1192.000000pt" height="1192.000000pt" viewBox="0 0 1192.000000 1192.000000"
 preserveAspectRatio="xMidYMid meet">
<metadata>
Created by potrace 1.14, written by Peter Selinger 2001-2017
</metadata>
<g transform="translate(0.000000,1192.000000) scale(0.100000,-0.100000)"
fill="#000000" stroke="none">
<path d="M7279 11346 c-2 -2 -30 -7 -62 -10 -85 -10 -269 -59 -373 -99 -186
-72 -494 -235 -699 -370 -49 -33 -121 -80 -160 -106 -38 -25 -72 -48 -75 -51
-3 -3 -34 -26 -70 -52 -358 -252 -636 -588 -861 -1039 -28 -57 -57 -107 -63
-111 -12 -8 -546 -3 -611 6 -22 3 -67 8 -100 11 -52 5 -102 11 -242 30 -16 2
-59 9 -98 15 -38 7 -83 14 -100 17 -124 19 -397 79 -655 143 -176 44 -156 39
-230 59 -34 9 -107 29 -260 69 -41 11 -137 36 -213 57 -76 20 -147 38 -158 41
-38 8 -55 12 -134 32 -95 24 -359 78 -430 87 -27 4 -61 9 -75 11 -110 15 -161
19 -275 18 -157 -1 -191 -6 -320 -45 -100 -31 -287 -114 -293 -130 -2 -5 -8
-9 -14 -9 -24 0 -181 -122 -268 -210 -127 -126 -185 -201 -258 -330 -32 -57
-100 -211 -106 -239 -2 -9 -6 -23 -9 -31 -17 -41 -41 -154 -56 -262 -8 -57 -6
-397 3 -493 9 -96 28 -222 46 -305 6 -25 12 -55 15 -67 12 -67 61 -228 92
-302 65 -158 183 -355 315 -526 64 -83 227 -286 248 -309 15 -17 49 -56 76
-86 27 -30 125 -129 218 -220 93 -91 260 -255 370 -365 111 -110 253 -245 316
-298 301 -257 385 -342 562 -572 68 -88 82 -102 281 -305 248 -252 288 -299
319 -384 10 -28 23 -60 27 -71 5 -11 15 -36 22 -55 20 -55 76 -175 136 -295
49 -97 195 -344 223 -378 5 -6 38 -50 72 -97 101 -140 239 -301 345 -404 57
-56 167 -333 229 -578 2 -10 6 -26 9 -35 16 -62 34 -144 39 -178 3 -22 8 -53
11 -70 3 -16 8 -39 9 -50 34 -186 155 -509 241 -640 27 -41 206 -264 284 -354
245 -282 525 -495 837 -635 177 -80 460 -173 554 -181 14 -1 25 -3 25 -4 0
-10 186 -25 300 -25 93 0 264 11 300 20 11 2 34 6 50 9 17 2 53 9 80 15 28 6
62 14 77 16 38 7 396 119 438 137 19 8 69 30 110 47 235 101 501 278 677 451
160 156 257 315 332 544 42 127 80 267 87 324 3 19 6 37 9 41 2 3 7 26 10 51
6 49 8 60 29 204 8 55 18 138 22 185 3 47 8 87 10 89 2 2 30 12 61 23 32 10
67 23 78 28 11 5 46 21 78 34 128 56 276 181 358 306 49 73 101 178 133 270
21 58 102 358 121 450 2 8 8 35 14 60 7 25 14 56 17 70 2 14 8 34 11 45 4 11
8 25 9 30 18 94 91 328 132 424 52 126 110 294 153 445 37 136 77 229 199 471
193 382 431 725 759 1095 41 47 287 297 546 555 446 445 554 560 621 665 49
78 107 210 120 275 6 31 14 68 20 95 4 14 8 86 9 160 4 167 -6 241 -59 440
-13 48 -63 166 -100 235 -40 76 -129 218 -151 241 -5 6 -21 26 -35 44 -113
152 -240 262 -420 362 -25 14 -130 73 -234 132 -104 58 -190 106 -193 106 -2
0 -28 16 -58 35 -30 19 -55 32 -55 28 0 -3 -8 1 -17 9 -10 8 -49 32 -88 53
-172 93 -196 105 -530 280 -71 37 -134 71 -140 75 -5 4 -46 26 -90 50 -44 24
-113 63 -152 86 -40 24 -76 44 -80 44 -3 0 -14 6 -22 14 -9 7 -47 30 -86 51
-38 21 -108 59 -155 85 -47 26 -150 81 -230 122 -323 168 -377 196 -420 220
-25 14 -70 39 -102 56 -31 18 -125 73 -209 123 -259 155 -394 215 -529 235
-30 4 -66 9 -80 11 -34 6 -387 13 -391 9z"/>
</g>
</svg>
